<?xml version="1.0" standalone="no"?>
<!DOCTYPE svg PUBLIC "-//W3C//DTD SVG 20010904//EN"
 "http://www.w3.org/TR/2001/REC-SVG-20010904/DTD/svg10.dtd">
<svg version="1.0" xmlns="http://www.w3.org/2000/svg"
 width="370.000000pt" height="370.000000pt" viewBox="0 0 370.000000 370.000000"
 preserveAspectRatio="xMidYMid meet">
<metadata>
Created by potrace 1.14, written by Peter Selinger 2001-2017
</metadata>
<g transform="translate(0.000000,370.000000) scale(0.100000,-0.100000)"
fill="#000000" stroke="none">
<path d="M3019 2806 c-30 -15 -35 -43 -14 -92 8 -20 13 -39 11 -42 -3 -2 -10
8 -17 24 -31 81 -53 99 -96 83 -28 -10 -30 -50 -6 -111 19 -49 47 -84 73 -91
26 -7 60 20 60 46 0 16 3 18 12 9 7 -7 24 -12 38 -12 55 0 63 41 27 129 -24
60 -50 76 -88 57z"/>
<path d="M2516 2611 c-18 -20 -18 -73 0 -221 6 -51 13 -67 59 -145 25 -42 67
-74 126 -94 92 -33 189 1 301 107 57 54 68 70 68 98 0 71 -78 76 -121 8 -11
-19 -24 -34 -27 -34 -4 0 -19 -10 -32 -22 -90 -81 -175 -78 -230 8 -31 49 -45
105 -55 218 -3 38 -10 76 -16 83 -16 19 -53 16 -73 -6z"/>
<path d="M1334 2529 c-74 -14 -161 -59 -149 -78 2 -4 28 -5 57 -1 29 3 67 5
83 4 40 -2 149 -15 153 -18 1 -2 -25 -6 -58 -9 -126 -14 -243 -66 -322 -145
-44 -44 -65 -62 -74 -62 -30 0 -228 -192 -298 -289 -109 -152 -197 -363 -201
-482 -2 -86 -53 -162 -164 -247 l-25 -19 35 -11 c35 -12 96 -11 114 0 6 4 10
-34 10 -105 0 -95 3 -118 22 -153 22 -41 52 -73 54 -58 1 5 1 33 -1 62 -1 28
0 52 2 52 2 0 21 -26 42 -58 21 -32 51 -66 67 -76 21 -12 29 -25 29 -44 0 -52
70 -146 132 -178 l32 -17 -47 -23 c-26 -14 -47 -31 -47 -39 0 -12 -20 -15
-107 -16 -558 -3 -617 -5 -621 -17 -3 -10 88 -13 460 -12 254 1 473 1 486 0
12 0 22 -6 22 -14 0 -29 30 -46 68 -40 20 3 68 6 105 6 67 1 75 4 89 43 2 6
107 11 271 12 226 2 267 1 267 -11 0 -25 21 -30 127 -32 99 -2 104 -1 122 23
l20 25 358 2 c278 2 365 0 390 -10 33 -14 130 -10 148 7 15 15 95 11 112 -6
19 -19 95 -18 138 2 22 9 86 14 225 16 144 1 194 5 198 15 3 9 -30 12 -142 12
-168 0 -164 -2 -172 103 -3 34 -9 76 -13 94 -5 17 -6 34 -3 38 3 3 7 13 8 23
23 192 18 205 -68 177 -29 -9 -62 -22 -73 -29 -14 -8 -65 -12 -165 -10 l-145
2 -70 36 c-38 20 -75 36 -82 36 -28 0 -34 -119 -10 -200 11 -38 11 -55 -3
-110 -8 -36 -21 -75 -28 -87 -10 -18 -9 -24 3 -36 12 -13 12 -17 -3 -30 -13
-11 -51 -15 -170 -16 -140 -2 -155 0 -179 18 -14 12 -33 21 -42 21 -9 1 -27 7
-41 15 -22 13 -23 14 -5 15 51 1 165 96 165 137 0 7 14 28 31 46 18 17 49 58
70 90 l38 58 -5 -58 -4 -58 44 48 c63 70 69 135 25 251 -10 28 -17 52 -15 54
3 2 14 -1 25 -8 24 -12 151 -23 150 -12 0 4 -23 24 -51 45 -57 44 -93 111
-102 192 -16 124 -122 387 -210 517 -83 124 -234 275 -321 321 -16 9 -50 34
-74 56 -80 72 -215 125 -302 117 -29 -3 -37 1 -54 27 -51 79 -207 129 -331
106z"/>
<path d="M3260 2308 c-84 -13 -124 -36 -128 -75 -5 -47 22 -58 91 -38 54 16
81 16 105 2 19 -13 15 -25 -29 -72 -47 -51 -51 -91 -11 -111 32 -16 56 -8 98
34 48 48 67 88 66 140 -2 87 -82 137 -192 120z"/>
</g>
</svg>
